<?xml version="1.0" standalone="no"?>
<!DOCTYPE svg PUBLIC "-//W3C//DTD SVG 1.1//EN" "http://www.w3.org/Graphics/SVG/1.1/DTD/svg11.dtd"><svg t="1677321343063" class="icon" viewBox="0 0 1024 1024" version="1.1" xmlns="http://www.w3.org/2000/svg" p-id="13746" xmlns:xlink="http://www.w3.org/1999/xlink" width="32" height="32"><path d="M512 512m-512 0a512 512 0 1 0 1024 0 512 512 0 1 0-1024 0Z" fill="#21D1C4" p-id="13747"></path><path d="M614.4 328.96a17.066667 17.066667 0 0 0-24.661333 0.597333 17.834667 17.834667 0 0 0-0.938667 25.088l1.024 1.024A106.410667 106.410667 0 0 1 613.888 392.533333a109.738667 109.738667 0 0 1 0 82.773334 106.069333 106.069333 0 0 1-24.064 36.352 59.050667 59.050667 0 0 1-5.034667 4.608c-1.621333 1.365333-3.413333 2.816-5.461333 4.352a105.984 105.984 0 0 1-35.072 17.92 112.469333 112.469333 0 0 1-38.656 4.522666 110.933333 110.933333 0 0 1-37.802667-8.96 106.325333 106.325333 0 0 1-33.194666-22.784 105.301333 105.301333 0 0 1-23.893334-36.181333 119.466667 119.466667 0 0 1-8.533333-41.472 112.554667 112.554667 0 0 1 7.68-41.386667 105.301333 105.301333 0 0 1 23.893333-36.181333 108.202667 108.202667 0 0 1 36.096-24.149333 114.261333 114.261333 0 0 1 35.754667-7.850667v96.512a17.066667 17.066667 0 0 0 20.736 14.08 17.749333 17.749333 0 0 0 15.36-20.053333V297.386667a10.24 10.24 0 0 0-10.24-10.24H512a147.626667 147.626667 0 0 0-55.722667 10.922666 144.469333 144.469333 0 0 0-47.872 31.914667 142.848 142.848 0 0 0-31.744 47.701333 156.842667 156.842667 0 0 0-11.008 55.978667 150.613333 150.613333 0 0 0 11.264 55.637333 145.066667 145.066667 0 0 0 31.829334 47.445334 141.653333 141.653333 0 0 0 44.117333 30.037333A150.784 150.784 0 0 0 503.466667 579.157333a148.138667 148.138667 0 0 0 51.2-5.802666 141.056 141.056 0 0 0 47.36-24.234667 147.4816 147.4816 0 0 0 13.568-11.946667 147.797333 147.797333 0 0 0 32.085333-47.701333 140.714667 140.714667 0 0 0 10.666667-55.893333 148.48 148.48 0 0 0-10.837334-56.149334 144.469333 144.469333 0 0 0-31.914666-47.445333l-1.194667-1.024zM523.264 248.661333a8.021333 8.021333 0 0 1-7.936-8.021333v-66.474667a8.021333 8.021333 0 0 1 15.957333 0v66.474667a8.021333 8.021333 0 0 1-8.021333 8.021333zM583.594667 253.44a8.533333 8.533333 0 0 1-4.010667-1.024 8.021333 8.021333 0 0 1-2.901333-10.922667l25.6-51.968a7.936 7.936 0 1 1 13.824 7.936l-25.6 51.968a8.021333 8.021333 0 0 1-6.912 4.010667zM460.117333 253.44a8.533333 8.533333 0 0 1-6.912-4.010667l-25.6-51.968a7.936 7.936 0 0 1 2.901334-10.922666 8.533333 8.533333 0 0 1 10.922666 2.986666l25.6 51.968a7.936 7.936 0 0 1-2.901333 10.922667 8.533333 8.533333 0 0 1-4.010667 1.024zM242.517333 767.488a6.570667 6.570667 0 0 1-7.082666-6.912V668.245333a6.912 6.912 0 0 1 13.824 0V755.2h46.421333a6.144 6.144 0 1 1 0 12.288zM332.8 670.378667a7.936 7.936 0 1 1-7.936-7.850667 7.424 7.424 0 0 1 7.936 7.850667z m-14.848 26.538666a6.741333 6.741333 0 0 1 13.482667 0v51.2c0 4.352 0.938667 7.253333 4.437333 7.253334s4.010667 2.730667 4.010667 5.546666-2.474667 6.741333-7.68 6.741334c-9.813333 0-14.250667-6.144-14.250667-18.773334zM426.666667 761.002667c0 24.490667-13.653333 37.205333-36.693334 37.205333a48.213333 48.213333 0 0 1-23.893333-5.973333 5.888 5.888 0 0 1-3.84-5.546667 5.546667 5.546667 0 0 1 5.376-5.973333c5.12 0 10.496 5.461333 23.210667 5.461333 15.701333 0 22.442667-9.813333 22.442666-25.6v-10.154667a30.634667 30.634667 0 0 1-28.074666 18.602667c-19.2 0-34.730667-15.872-34.730667-39.68s16.384-40.362667 35.584-40.362667a28.586667 28.586667 0 0 1 27.221333 17.664v-10.496a5.888 5.888 0 0 1 6.656-5.632c4.608 0 6.741333 2.56 6.741334 5.632z m-13.653334-31.744a25.6 25.6 0 0 0-24.576-28.16c-14.421333 0-24.405333 11.946667-24.405333 28.16a24.661333 24.661333 0 1 0 48.981333 0zM461.994667 703.573333a24.661333 24.661333 0 0 1 23.381333-14.592c18.858667 0 29.013333 12.885333 29.013333 31.061334v40.96a6.570667 6.570667 0 0 1-6.741333 6.485333 6.485333 6.485333 0 0 1-6.741333-6.485333v-37.12c0-13.568-7.082667-22.784-19.541334-22.784s-19.370667 9.386667-19.370666 23.04v36.864a6.741333 6.741333 0 0 1-13.482667 0V667.904a6.741333 6.741333 0 0 1 13.482667 0zM554.666667 744.277333c0 8.533333 2.901333 12.458667 9.045333 12.458667s8.533333-2.474667 10.325333-2.474667a5.290667 5.290667 0 0 1 4.949334 5.376 6.229333 6.229333 0 0 1-2.816 5.546667 25.088 25.088 0 0 1-14.762667 3.84c-15.189333 0-20.138667-10.581333-20.138667-23.381333v-43.178667h-6.229333a5.717333 5.717333 0 0 1-6.144-5.973333 5.888 5.888 0 0 1 6.144-5.973334h6.229333v-13.056a6.485333 6.485333 0 0 1 6.826667-6.656 6.314667 6.314667 0 0 1 6.570667 6.656v13.056h14.762666a5.802667 5.802667 0 0 1 6.144 5.973334 5.888 5.888 0 0 1-6.144 5.973333H554.666667zM608.853333 670.378667a7.936 7.936 0 1 1-8.021333-7.850667 7.509333 7.509333 0 0 1 8.021333 7.850667z m-14.933333 26.538666a6.4 6.4 0 0 1 6.826667-6.4 6.314667 6.314667 0 0 1 6.741333 6.4v51.2c0 4.352 0.938667 7.253333 4.437333 7.253334s4.010667 2.730667 4.010667 5.546666-2.474667 6.741333-7.68 6.741334c-9.898667 0-14.336-6.144-14.336-18.773334zM630.698667 696.32a5.973333 5.973333 0 0 1 6.826666-5.802667c4.693333 0 6.656 2.730667 6.656 5.632v7.424a25.6 25.6 0 0 1 24.234667-14.592c18.944 0 28.928 12.458667 28.928 31.061334v40.96a6.570667 6.570667 0 0 1-6.741333 6.485333 6.485333 6.485333 0 0 1-6.656-6.485333v-37.12c0-13.738667-7.168-22.784-19.456-22.784s-20.309333 9.386667-20.309334 23.04v36.864a6.741333 6.741333 0 0 1-13.482666 0zM790.613333 761.002667c0 24.490667-13.738667 37.205333-36.778666 37.205333a47.616 47.616 0 0 1-23.808-5.973333 5.888 5.888 0 0 1-3.84-5.546667 5.461333 5.461333 0 0 1 5.376-5.973333c5.12 0 10.496 5.461333 23.210666 5.461333 15.701333 0 22.442667-9.813333 22.442667-25.6v-10.154667a30.805333 30.805333 0 0 1-28.16 18.602667c-19.2 0-34.730667-15.872-34.730667-39.68s16.469333-40.362667 35.669334-40.362667a28.672 28.672 0 0 1 27.221333 17.664v-10.496a5.888 5.888 0 0 1 6.570667-5.632c4.608 0 6.826667 2.56 6.826666 5.632z m-13.397333-31.744a25.6 25.6 0 0 0-24.576-28.16c-14.421333 0-24.490667 11.946667-24.490667 28.16a24.661333 24.661333 0 1 0 49.066667 0z" fill="#FFFFFF" p-id="13748"></path></svg>
